<svg xmlns="http://www.w3.org/2000/svg" viewBox="0 0 1247.31 897.05"><defs><style>.cls-1{fill:#d49466;}</style></defs><g id="레이어_2" data-name="레이어 2"><g id="레이어_1-2" data-name="레이어 1"><polygon class="cls-1" points="971 5.03 971 143.08 1237.74 143.08 971 5.03"/><path class="cls-1" d="M890.74,210V0h-793C43.77,0,0,36.46,0,81.44V815.6c0,45,43.77,81.45,97.77,81.45H1149.54c54,0,97.77-36.47,97.77-81.45V210Zm-610,380.56c-114.37-129-35.42-317.13,109.82-350.29,49.15-11.22,94.66,1.2,136.62,27.29a197.84,197.84,0,0,1,36.34,28.79c12.41,12.6,14,28.76,7.54,45.36-6.06,15.45-18.08,23.68-34,24.74-7.07.48-15-1.87-21.47-5.13-7.58-3.84-14.21-9.76-20.8-15.31-67.75-57-164.11-15-180.87,64.23-6.78,32.08-6.33,63.9,5.15,95,27.3,73.91,120.9,96.51,179.22,43.46A133.33,133.33,0,0,1,515.12,535c16.54-10.72,34.93-9.07,49.72,3.83,13.86,12.1,18.37,31.11,8.84,48-5.79,10.27-14.24,19.58-23.14,27.45C517.38,643.54,468.37,661,417.8,660.71,364.42,661.18,318.78,633.46,280.69,590.51Zm598.9,211.81c-38,.8-76,1.51-114,1.71-53.93.28-107.85.07-161.78.07v-.58q-119.62,0-239.26-.06c-12.59,0-25.19-1.14-37.78-1.14-15.58,0-24.12-18.06-19-28.76,3.24-6.83,9.11-12.51,14.27-18.28,1.12-1.25,4.26-1,6.47-1q84.62-.08,169.23,0,147.51.08,295,.31c26.23.07,52.46,1.16,78.68,1.87,3.29.09,6.57.64,9.84,1,13.86,1.74,19.74,8.64,19.44,22.76C900.42,792.65,891.9,802.06,879.59,802.32Zm100.32-512.8c-5.84,20.9-11.59,42-19.62,62.07C924.2,441.93,887.36,532,850.7,622.09c-2.59,6.38-6.12,12.38-8.81,18.73C835.44,656.09,822.83,661,807.67,661S780.4,655.45,774,640.16c-28.83-68.34-58.27-136.42-86.84-204.87-18.33-43.93-34.71-88.69-53.65-132.35-7.21-16.62,5.9-43.09,21.66-50.84,17.59-8.65,42.39-2.23,51.35,15.7,12.47,25,23.24,50.79,34.19,76.49,20.28,47.6,40.15,95.39,60.26,143.07,2,4.73,4.49,9.25,8.17,16.75,12.56-30.92,23.9-59,35.34-87q26.8-65.62,53.78-131.19a159.58,159.58,0,0,1,10.38-20.24c7.92-13.36,20.71-18.1,35.3-17.13,15.54,1,27.49,9.57,34.76,23C981.3,276.37,981.46,284,979.91,289.52Z"/></g></g></svg>