<svg xmlns="http://www.w3.org/2000/svg" viewBox="0 0 172.36 163.73"><defs><style>.cls-1{fill:#893d53;}.cls-2{fill:#2fab6f;stroke:#e61f19;stroke-miterlimit:10;stroke-width:0.89px;}.cls-3{fill:#683552;}.cls-4{fill:#ab4657;}.cls-5{fill:#883d54;}.cls-6{fill:#ab4658;}.cls-7{fill:#b8d564;}.cls-8{fill:#87c259;}.cls-9{fill:#7db23e;}.cls-10{fill:#47acd7;}.cls-11{fill:#50b4d3;}.cls-12{fill:#3fa1bb;}.cls-13{fill:#3995ad;}.cls-14{fill:#41a2bb;}.cls-15{fill:#a0b060;}.cls-16{fill:#659041;}.cls-17{fill:#3085a8;}.cls-18{fill:#dc4112;}</style></defs><title>자산 5</title><g id="레이어_2" data-name="레이어 2"><g id="레이어_1-2" data-name="레이어 1"><polygon class="cls-1" points="30.69 137.17 46.04 146.02 46.04 163.73 30.69 154.88 30.69 137.17"/><path class="cls-2" d="M61.39,119.46"/><path class="cls-2" d="M34.26,103.81"/><polygon class="cls-3" points="46.04 146.02 46.04 163.73 92.08 137.17 92.08 119.46 76.74 128.31 76.74 92.9 61.39 101.75 61.39 137.17 46.04 146.02"/><polygon class="cls-4" points="46.04 92.9 61.39 84.04 76.74 92.9 61.39 101.75 46.04 92.9"/><polygon class="cls-5" points="46.04 110.61 46.04 92.9 61.39 101.75 61.39 119.46 46.04 110.61"/><polygon class="cls-6" points="76.75 110.61 76.74 128.31 92.08 119.46 76.75 110.61"/><polygon class="cls-7" points="30.69 119.46 46.04 110.61 61.39 119.46 46.04 128.31 30.69 119.46"/><polygon class="cls-8" points="15.35 92.9 15.35 110.61 46.04 128.31 46.04 146.02 15.35 128.31 15.35 146.02 0 137.17 0 84.04 15.35 92.9"/><polygon class="cls-9" points="61.39 119.46 61.39 137.17 46.04 146.02 46.04 128.31 61.39 119.46"/><polygon class="cls-9" points="15.35 146.02 30.69 137.17 15.35 128.31 15.35 146.02"/><polygon class="cls-7" points="15.35 75.19 0 84.04 15.35 92.9 30.69 84.04 15.35 75.19"/><polygon class="cls-10" points="30.69 101.75 15.35 92.9 15.35 110.61 30.69 119.46 30.69 101.75"/><polygon class="cls-11" points="61.39 84.04 30.69 101.75 15.35 92.9 46.04 75.19 30.69 66.34 46.04 57.48 92.08 84.04 76.74 92.9 61.39 84.04"/><polygon class="cls-12" points="76.74 110.61 92.08 101.75 92.08 84.04 76.74 92.9 76.74 110.61"/><polygon class="cls-13" points="30.69 66.34 30.69 84.04 46.04 75.19 30.69 66.34"/><polygon class="cls-14" points="46.04 92.9 30.69 101.75 30.69 119.46 46.04 110.61 46.04 92.9"/><polygon class="cls-8" points="89.76 2.52 102.79 10.04 102.79 15.05 94.09 10.04 94.09 25.09 102.8 30.13 102.79 35.14 89.75 27.61 89.76 2.52"/><polygon class="cls-15" points="89.76 2.52 94.09 0 107.14 7.53 102.79 10.04 89.76 2.52"/><polygon class="cls-16" points="98.44 12.54 94.09 10.04 94.09 25.09 98.44 22.58 98.44 12.54"/><polygon class="cls-16" points="107.14 27.61 102.8 30.13 102.79 35.14 107.14 32.63 107.14 27.61"/><polygon class="cls-16" points="107.14 7.53 102.79 10.04 102.79 15.05 107.14 12.55 107.14 7.53"/><polygon class="cls-15" points="98.44 22.58 94.09 25.09 102.8 30.13 107.14 27.61 98.44 22.58"/><polygon class="cls-15" points="111.48 15.06 115.83 12.55 120.2 15.05 115.83 17.57 111.48 15.06"/><polygon class="cls-8" points="111.48 40.16 111.48 15.06 115.83 17.57 115.83 27.61 120.16 30.13 120.18 20.08 124.55 22.58 124.53 47.69 120.2 45.19 120.18 35.14 115.83 32.63 115.83 42.67 111.48 40.16"/><polygon class="cls-16" points="120.2 15.05 120.2 25.11 115.83 27.61 115.83 17.57 120.2 15.05"/><polygon class="cls-15" points="120.16 30.13 115.83 27.61 120.2 25.11 120.16 30.13"/><polygon class="cls-15" points="120.19 20.08 124.53 17.57 128.9 20.07 124.53 22.59 120.19 20.08"/><polygon class="cls-16" points="115.83 32.63 115.83 42.67 120.2 40.15 120.18 35.14 115.83 32.63"/><polygon class="cls-16" points="124.53 47.69 128.9 45.18 128.9 20.07 124.53 22.59 124.53 47.69"/><polygon class="cls-8" points="133.22 27.61 133.22 52.71 146.26 60.24 146.26 35.14 133.22 27.61"/><polygon class="cls-15" points="133.24 27.63 137.57 25.11 150.62 32.64 146.27 35.15 133.24 27.63"/><polygon class="cls-16" points="146.24 60.24 150.62 57.73 150.62 32.62 146.25 35.14 146.24 60.24"/><polygon class="cls-16" points="141.91 37.64 137.56 35.14 137.55 50.2 141.91 47.68 141.91 37.64"/><polygon class="cls-15" points="141.92 47.68 137.56 50.2 141.91 52.71 141.92 47.68"/><polygon class="cls-15" points="154.95 40.16 159.3 37.65 172.34 45.18 168 47.69 154.95 40.16"/><polygon class="cls-8" points="154.95 40.16 168 47.69 168 52.71 163.65 50.2 163.65 65.26 168 67.77 168 72.79 154.95 65.26 154.95 60.24 159.3 62.75 159.3 47.69 154.95 45.17 154.95 40.16"/><polygon class="cls-16" points="168 52.7 163.65 50.2 163.64 65.25 168 62.74 168 52.7"/><polygon class="cls-16" points="172.34 65.26 168.01 67.78 168 72.79 172.34 70.28 172.34 65.26"/><polygon class="cls-16" points="172.34 45.18 168.01 47.7 168 52.71 172.34 50.2 172.34 45.18"/><polygon class="cls-15" points="168 62.74 163.64 65.25 168.01 67.78 172.34 65.26 168 62.74"/><polygon class="cls-15" points="154.95 60.24 159.3 62.75 159.3 57.73 154.95 60.24"/><polygon class="cls-10" points="68.01 25.1 81.07 32.62 81.05 37.65 72.37 32.64 72.36 37.65 81.05 42.67 81.05 57.73 68.01 50.2 68.01 45.18 76.71 50.2 76.71 45.18 68.01 40.16 68.01 25.1"/><polygon class="cls-11" points="68.02 25.11 72.35 22.59 85.39 30.12 81.05 32.63 68.02 25.11"/><polygon class="cls-17" points="85.4 30.12 81.07 32.64 81.05 37.65 85.4 35.14 85.4 30.12"/><polygon class="cls-13" points="81.05 42.67 85.39 40.15 76.7 35.14 72.36 37.65 81.05 42.67"/><polygon class="cls-17" points="72.37 32.64 72.36 37.65 76.7 35.14 72.37 32.64"/><polygon class="cls-17" points="85.39 40.15 81.05 42.67 81.05 57.73 85.39 55.22 85.39 40.15"/><polygon class="cls-13" points="68.01 45.18 72.36 42.67 76.71 45.18 76.71 50.2 68.01 45.18"/><polygon class="cls-10" points="89.75 37.65 102.79 45.18 102.79 50.2 94.09 45.18 94.09 50.2 102.81 55.23 102.79 60.24 94.11 55.21 94.09 60.24 102.79 65.26 102.81 70.29 89.75 62.75 89.75 37.65"/><polygon class="cls-17" points="107.14 42.67 102.8 45.19 102.79 50.2 107.14 47.69 107.14 42.67"/><polygon class="cls-17" points="107.14 52.71 102.8 55.23 102.79 60.24 107.14 57.73 107.14 52.71"/><polygon class="cls-17" points="107.14 62.75 102.8 65.27 102.79 70.28 107.14 67.77 107.14 62.75"/><polygon class="cls-17" points="94.11 45.18 94.1 50.19 98.44 47.68 94.11 45.18"/><polygon class="cls-17" points="94.12 55.22 94.11 60.23 98.45 57.72 94.12 55.22"/><polygon class="cls-11" points="89.75 37.66 94.08 35.14 107.12 42.67 102.77 45.18 89.75 37.66"/><polygon class="cls-13" points="98.44 47.68 94.09 50.19 102.81 55.23 107.14 52.71 98.44 47.68"/><polygon class="cls-13" points="98.44 57.72 94.09 60.24 102.81 65.27 107.14 62.75 98.44 57.72"/><polygon class="cls-17" points="124.52 82.91 128.89 80.4 128.89 55.29 124.53 57.81 124.52 82.91"/><polygon class="cls-13" points="120.19 70.34 115.83 72.86 120.19 75.38 120.19 70.34"/><polygon class="cls-10" points="111.48 50.2 115.83 52.71 115.83 72.86 120.19 75.38 120.18 55.29 124.53 57.81 124.52 82.91 111.48 75.3 111.48 50.2"/><polygon class="cls-17" points="120.18 50.2 115.83 52.71 115.83 72.86 120.19 70.34 120.18 50.2"/><polygon class="cls-11" points="111.46 50.21 115.81 47.7 120.18 50.19 115.81 52.72 111.46 50.21"/><polygon class="cls-11" points="120.15 55.22 124.5 52.71 128.87 55.2 124.5 57.73 120.15 55.22"/><polygon class="cls-17" points="137.55 90.36 141.93 87.85 141.93 62.74 137.56 65.26 137.55 90.36"/><polygon class="cls-11" points="133.2 62.68 137.55 60.17 141.91 62.67 137.55 65.19 133.2 62.68"/><polyline class="cls-10" points="141.88 77.75 141.89 67.7 146.26 70.2 146.24 95.31 141.91 92.81 137.55 80.25 137.55 80.25 137.55 90.29 133.2 87.78 133.2 62.68 137.55 65.19 141.88 77.75"/><polygon class="cls-11" points="141.9 67.7 146.25 65.19 150.62 67.69 146.25 70.21 141.9 67.7"/><polygon class="cls-17" points="146.24 95.31 150.62 92.8 150.62 67.69 146.25 70.21 146.24 95.31"/><path class="cls-18" d="M137.55,75.23"/><polygon class="cls-11" points="154.93 75.31 159.26 72.79 172.3 80.32 167.96 82.83 154.93 75.31"/><polygon class="cls-17" points="172.31 80.32 167.97 82.84 167.96 87.85 172.31 85.34 172.31 80.32"/><polygon class="cls-13" points="159.28 97.93 163.63 95.35 163.63 100.37 159.28 97.93"/><polygon class="cls-17" points="159.28 82.79 159.28 97.93 163.63 95.35 163.62 85.3 159.28 82.79"/><polygon class="cls-10" points="154.93 75.31 154.92 100.4 167.96 107.93 167.96 97.89 163.63 95.35 163.63 100.37 159.28 97.93 159.28 82.79 167.96 87.85 167.97 82.84 154.93 75.31"/><polygon class="cls-17" points="172.36 95.35 172.31 105.42 167.96 107.93 167.96 97.89 172.36 95.35"/><polygon class="cls-11" points="167.96 92.87 163.63 95.35 167.96 97.89 172.36 95.35 167.96 92.87"/><polygon class="cls-3" points="159.24 138.16 163.61 135.65 163.61 110.54 159.25 113.06 159.24 138.16"/><polygon class="cls-4" points="154.88 110.48 159.23 107.97 163.6 110.47 159.23 112.99 154.88 110.48"/><polyline class="cls-1" points="163.56 125.54 163.58 115.5 167.95 117.99 167.93 143.1 163.6 140.61 159.23 128.04 159.23 128.04 159.23 138.09 154.88 135.57 154.88 110.48 159.23 112.99 163.56 125.54"/><polygon class="cls-4" points="163.59 115.5 167.94 112.99 172.3 115.48 167.94 118.01 163.59 115.5"/><polygon class="cls-3" points="167.93 143.1 172.3 140.59 172.3 115.48 167.94 118.01 167.93 143.1"/><path class="cls-18" d="M159.23,123"/><polygon class="cls-1" points="133.15 97.86 146.19 105.39 146.17 130.5 141.84 127.98 141.84 117.94 137.5 115.43 137.5 125.47 133.15 122.96 133.15 97.86"/><polygon class="cls-3" points="137.5 105.39 137.5 110.41 141.84 107.89 137.5 105.39"/><polygon class="cls-4" points="141.84 112.92 137.5 110.41 141.84 107.89 141.84 112.92"/><polygon class="cls-4" points="133.17 97.87 137.5 95.35 150.54 102.88 146.19 105.39 133.17 97.87"/><polygon class="cls-3" points="146.17 130.49 150.55 127.98 150.55 102.87 146.19 105.4 146.17 130.49"/><polygon class="cls-3" points="137.5 125.47 141.84 122.96 141.84 117.94 137.5 115.43 137.5 125.47"/><polygon class="cls-1" points="107.04 82.82 113.54 86.53 115.71 97.75 117.95 89.04 124.41 92.8 124.44 117.95 120.11 115.43 120.09 100.15 117.89 114.15 113.6 111.67 111.36 97.75 111.41 110.41 107.07 107.9 107.04 82.82"/><polygon class="cls-3" points="124.44 117.95 128.82 115.44 128.82 90.33 124.45 92.85 124.44 117.95"/><polygon class="cls-4" points="117.95 89.07 122.33 86.57 128.82 90.33 124.47 92.84 117.95 89.07"/><polygon class="cls-4" points="107.01 82.8 111.39 80.29 117.88 84.06 113.54 86.57 107.01 82.8"/><polygon class="cls-3" points="111.41 110.41 113.23 109.36 111.36 97.75 111.41 110.41"/><polygon class="cls-3" points="117.89 114.15 120.09 100.15 120.09 112.92 117.89 114.15"/><polygon class="cls-3" points="117.88 84.06 118.8 88.59 117.95 89.07 115.71 97.75 113.54 86.57 117.88 84.06"/></g></g></svg>