<svg xmlns="http://www.w3.org/2000/svg" xmlns:xlink="http://www.w3.org/1999/xlink" viewBox="0 0 1262.72 158.41"><defs><style>.cls-1{fill:none;}.cls-2{font-size:65.88px;}.cls-2,.cls-6,.cls-7,.cls-8{fill:#231815;}.cls-2,.cls-8{font-family:GillSansMT-Condensed, Gill Sans MT Condensed;}.cls-3{letter-spacing:0.02em;}.cls-4{letter-spacing:0em;}.cls-5{fill:#172a88;}.cls-7{letter-spacing:-0.02em;}.cls-8{font-size:143.49px;}.cls-9{fill:#004294;}.cls-10{clip-path:url(#clip-path);}.cls-11{fill:url(#linear-gradient);}</style><clipPath id="clip-path"><path class="cls-1" d="M0,124.69a1436.14,1436.14,0,0,0,202.09,14.24,1436.15,1436.15,0,0,0,202.09-14.24A1441.23,1441.23,0,0,0,0,124.69"/></clipPath><linearGradient id="linear-gradient" x1="641.15" y1="898.72" x2="642.81" y2="898.72" gradientTransform="matrix(243.25, 0, 0, -243.25, -155958.04, 218736.74)" gradientUnits="userSpaceOnUse"><stop offset="0" stop-color="#59bded"/><stop offset="0.05" stop-color="#59bded"/><stop offset="0.11" stop-color="#49b3e6"/><stop offset="0.28" stop-color="#219bd6"/><stop offset="0.42" stop-color="#098ccd"/><stop offset="0.5" stop-color="#0086c9"/><stop offset="0.53" stop-color="#0080c5"/><stop offset="0.67" stop-color="#006cb7"/><stop offset="0.81" stop-color="#005faf"/><stop offset="0.95" stop-color="#005bac"/><stop offset="1" stop-color="#005bac"/></linearGradient></defs><title>자산 1</title><g id="레이어_2" data-name="레이어 2"><g id="레이어_1-2" data-name="레이어 1"><text class="cls-2" transform="translate(627.62 67.73) scale(0.96 1)">Laborato<tspan class="cls-3" x="164.74" y="0">r</tspan><tspan class="cls-4" x="182.53" y="0">y for</tspan><tspan class="cls-5"><tspan x="0" y="52.48">P</tspan><tspan class="cls-6" x="24.71" y="52.48">recision </tspan><tspan class="cls-4" x="188" y="52.48">E</tspan><tspan class="cls-6" x="211.97" y="52.48">ngineering &amp; </tspan><tspan x="478.17" y="52.48">M</tspan><tspan class="cls-6" x="508.35" y="52.48">etrol</tspan><tspan class="cls-7" x="594.21" y="52.48">o</tspan><tspan class="cls-6" x="615.89" y="52.48">gy</tspan></tspan></text><text class="cls-8" transform="translate(467.07 119.67) scale(0.89 1)">PEM</text><rect class="cls-9" x="192.63" y="23.59" width="18.92" height="71.19"/><polygon class="cls-9" points="293.76 23.59 293.76 38.42 317.57 38.42 317.57 94.78 336.48 94.78 336.48 38.42 360.29 38.42 360.29 23.59 293.76 23.59"/><path class="cls-9" d="M267.41,51.78H251.59c-4.2,0-7.61-1.73-7.61-6.68s3.41-6.68,7.61-6.68h34V23.59H249.35c-13.53,0-24.5,7.81-24.5,21.5s11,21.5,24.5,21.5h16.27c4.2,0,7.6,1.74,7.6,6.68s-3.4,6.67-7.6,6.67H227.47V94.78h39.94c13.53,0,24.5-7.79,24.5-21.49s-11-21.52-24.5-21.52"/><polygon class="cls-9" points="135.03 23.59 108.27 87.66 82.76 59.19 114.66 23.59 93.05 23.59 62.82 57.39 62.82 23.59 43.9 23.59 43.9 94.78 62.82 94.78 62.82 60.99 93.05 94.78 124.52 94.78 146.19 41.1 161.92 80.57 136.91 80.57 142.85 94.78 187.09 94.78 157.35 23.59 135.03 23.59"/><g class="cls-10"><rect class="cls-11" y="110.45" width="404.18" height="28.48"/></g></g></g></svg>